<svg xmlns="http://www.w3.org/2000/svg" width="640" height="640" viewBox="0 0 640 640">
  <defs>
    <style>
      .cat_logo {
        fill: #fff;
        fill-rule: evenodd;
      }
    </style>
  </defs>
  <path class="cat_logo" d="M295.647,188.048c12.11-15.791,41.283-27.574,41.283-27.574s1.163,10.968,0,17.941c9.882-6.973,34.95-13.22,34.95-13.22l7.556,16.053,48.173,10.387S511.967,96.263,530.568,88.708c29.064-9.3,50.934,73.509,46.284,124.646-8.719,34.866-35.642,44.589-44.395,59.49,6.6,8.714,14.064,39.175,23.614,71.765,6.771-2,33.613-7.86,57.619-6.61,3.126,0.163.242,7.562,0.242,7.562-1.015-1.351-28.661-2.88-54.082,6.6,1.014,0.608,6.551,19.956,10.631,34.638,0.262,0.942,22.108-2.582,46.043,12.576,2.954,2.953,1.065,2.305-1.889,7.554-17.069-13.19-42.139-12.835-41.759-11.445,1.264,4.614,2.087,7.668,2.087,7.668S573.085,406.08,555,421c-1.444,1.191,20.8-12.838,73,19,3.077,2.045-2.666,3.857-4,6-23.975-15.634-64.872-23.493-81-14-14.44,10.171-117.353,74.916-212.682,75.97-98.861,1.095-174.494-45.051-218.2-78.375-1.765-1.346-45.713-.93-81.067,20.548-5.251,0-5.3-1.112-6.612-4.721C61.7,420.225,97.981,419.649,96,418c-17.569-14.626-25.439-22.4-25.439-22.4s0.039-6.264,0-8.5C70.522,384.926,35.882,381.02,17,390c-7.237-5.811-4.581-1.77-4-7,11.625-9.3,60.1-4.542,60.394-6.285,0.87-5.228,1.607-18.812,3.778-24.551C47.7,336.209,22.387,338,22.387,338l-0.945-7.554s34.449-1.334,56.638,8.741c3.8-18.638,9.293-36.646,17.039-44.624-3.488-20.338-31.171-37.553-38.727-76.487S42.95,136.794,66.782,101.928c6.975-4.649,135.946,82.226,131.3,94.429C240.489,181.61,253.685,182.722,295.647,188.048ZM129.124,355c-2.325-2.9,29.5-90.215,81.233-100.094,40.056,0,67.482,95.157,76.783,95.738,8.138,5.23,3.506,10.966,3.506,10.966s-34.949,22.082-72.732,22.663S131.449,357.9,129.124,355Zm247.478-.944c6.976-10.46,7.484-87.818,55.73-110.481,34.877-8.717,63,23.97,82.178,84.985-1.744,9.879-16.058,35.956-61.4,40.605s-76.511-7.555-76.511-7.555S373.115,359.863,376.6,354.052Zm41.562-45.326s5.667,31.6,13.224,29.273,12.134-30.871,10.39-34.938c-0.743-1.734-4.214-1.6-9.446-5.666-1.945-1.512,5.612-11.816,5.668-15.108,0.094-5.562-8.4-10.91-11.335-9.443C418.527,276.911,418.164,308.726,418.164,308.726Zm-204.973,0s5.522,34,11.335,34,10.39-27.385,10.39-27.385l-8.5-5.665,7.557-15.109s-6.83-15.181-13.224-12.275S213.191,308.726,213.191,308.726Zm98.236,67.989c-0.581,7.554,25.5,17.941,25.5,17.941s16.276-9.951,22.67-19.83C343.906,360.88,319.565,363.35,311.427,376.715Zm28.337,73.654c-16.276-1.743-17.947,12.712-17.947,17.942s-2.4,10.532,2.834,12.275,12.061-5.157,13.224-10.387C343.688,460.9,346.739,447.464,339.764,450.369ZM510.732,121.758s-41.852,52.517-37.783,89.707c4.069,8.717,7.121,10.9,24.559,28.329C476,204.928,510.732,121.758,510.732,121.758ZM167.852,221.852c-22.67-65.083-81.234-96.317-81.234-96.317s91.188,88.545,40.617,135.033C149.905,243.135,157.97,234.636,167.852,221.852ZM36.556,372.938"/>
</svg>
